<svg xmlns="http://www.w3.org/2000/svg" xmlns:xlink="http://www.w3.org/1999/xlink" width="352.183" height="58.504" viewBox="0 0 352.183 58.504">
  <defs>
    <linearGradient id="linear-gradient" x1="0.979" y1="4.009" x2="-0.027" y2="4.009" gradientUnits="objectBoundingBox">
      <stop offset="0" stop-color="#c2d338"/>
      <stop offset="0.08" stop-color="#c2d338"/>
      <stop offset="0.28" stop-color="#8dac5a"/>
      <stop offset="0.5" stop-color="#5e8e6b"/>
      <stop offset="0.7" stop-color="#377c71"/>
      <stop offset="0.87" stop-color="#1b7272"/>
      <stop offset="1" stop-color="#0a6e72"/>
    </linearGradient>
  </defs>
  <g id="Group_4906" data-name="Group 4906" transform="translate(-4.996 -56.068)">
    <path id="begbies_footer_icon" data-name="begbies footer icon" d="M60.316,71.872a20.67,20.67,0,0,0-37.809,2.546,15.183,15.183,0,1,1-8.4,21.3A26.2,26.2,0,0,1,51.652,61.735a29.3,29.3,0,0,0-43.4,37.015,29.046,29.046,0,0,0,24.3,15.823h3.472a29.444,29.444,0,0,0,24.284-42.7ZM40.162,106.895a19.24,19.24,0,0,1-22.08-3.153A17.788,17.788,0,1,0,28.5,70.991a19.06,19.06,0,0,1,11.664,35.9Z" fill="url(#linear-gradient)"/>
    <path id="Path_3724" data-name="Path 3724" d="M42.985,90.887h.843a1.052,1.052,0,0,0,.534-.173.8.8,0,0,0,.275-.465,3.876,3.876,0,0,0,0-.895v-18a4.078,4.078,0,0,0,0-.895A.768.768,0,0,0,44.344,70a1.155,1.155,0,0,0-.551-.173H42.95v-.361H50.5a16.061,16.061,0,0,1,2.8.242,7.4,7.4,0,0,1,2.462.86,5.016,5.016,0,0,1,1.721,1.721,5.149,5.149,0,0,1,.67,2.752,4.266,4.266,0,0,1-1.118,3.218,6.366,6.366,0,0,1-3.149,1.548,8.283,8.283,0,0,1,2.013.62,5.93,5.93,0,0,1,1.721,1.1,5.059,5.059,0,0,1,1.119,1.584,4.9,4.9,0,0,1,.413,2.064,5.383,5.383,0,0,1-.689,2.838,5.545,5.545,0,0,1-1.823,1.842A7.872,7.872,0,0,1,54.1,90.87a13.627,13.627,0,0,1-2.994.344H42.985Zm4.474-1.928a1.027,1.027,0,0,0,.482.482,2.1,2.1,0,0,0,.7.207h1.446a12.7,12.7,0,0,0,2.185-.19,5.842,5.842,0,0,0,1.961-.7,3.81,3.81,0,0,0,1.928-3.528,4,4,0,0,0-.655-2.41,4.39,4.39,0,0,0-1.721-1.377A7.429,7.429,0,0,0,51.5,80.8a19.327,19.327,0,0,0-2.408-.086H47.373v8.294Zm0-9.894h3.08a8.3,8.3,0,0,0,1.892-.207,4.429,4.429,0,0,0,1.584-.688,3.331,3.331,0,0,0,1.066-1.256,4.205,4.205,0,0,0,.378-1.893,3.724,3.724,0,0,0-.465-1.943,3.628,3.628,0,0,0-1.2-1.256,5.009,5.009,0,0,0-1.721-.655,9.949,9.949,0,0,0-1.961-.188H48.732a3.79,3.79,0,0,0-.724.119,1.049,1.049,0,0,0-.532.328V79h0Z" transform="translate(27.614 9.747)" fill="#066e70"/>
    <path id="Path_3725" data-name="Path 3725" d="M56.2,80.271a11.083,11.083,0,0,0,.344,2.462,7.117,7.117,0,0,0,.929,2.168A4.707,4.707,0,0,0,59.2,86.449a4.887,4.887,0,0,0,2.46.586,9.759,9.759,0,0,0,1.308-.1,7.919,7.919,0,0,0,1.342-.309,5.013,5.013,0,0,0,1.2-.586,2.982,2.982,0,0,0,.809-1l.328.482a5.933,5.933,0,0,1-2.531,2.546,7.477,7.477,0,0,1-3.441.843,6.5,6.5,0,0,1-2.925-.6,5.622,5.622,0,0,1-2.013-1.721,6.889,6.889,0,0,1-1.154-2.445,11.486,11.486,0,0,1-.361-2.942,11.64,11.64,0,0,1,.4-3.028A8.265,8.265,0,0,1,55.859,75.5a6.52,6.52,0,0,1,2.1-1.892,5.963,5.963,0,0,1,2.942-.62,5.544,5.544,0,0,1,2.65.586,5.168,5.168,0,0,1,1.721,1.548,7.042,7.042,0,0,1,1.049,2.22,14.663,14.663,0,0,1,.517,2.529V80.2H56.17Zm7.6-2.925a5.413,5.413,0,0,0-.6-1.463,3.224,3.224,0,0,0-1.05-1.049,2.985,2.985,0,0,0-1.6-.4,3.933,3.933,0,0,0-1.721.361,3.833,3.833,0,0,0-1.256,1,4.967,4.967,0,0,0-.828,1.444,8.45,8.45,0,0,0-.43,1.721h7.745A9.167,9.167,0,0,0,63.81,77.346Z" transform="translate(35.817 12.309)" fill="#066e70"/>
    <path id="Path_3726" data-name="Path 3726" d="M74.577,74.9l-.482.188a4.328,4.328,0,0,1,.655,1.721,9.763,9.763,0,0,1,.171,1.721,5.391,5.391,0,0,1-.636,2.667,5.3,5.3,0,0,1-1.721,1.859,5.9,5.9,0,0,1-2.41.912,6.116,6.116,0,0,1-2.736-.207,2.131,2.131,0,0,0-.584.259,3.172,3.172,0,0,0-.6.447,3,3,0,0,0-.465.567,1.1,1.1,0,0,0-.188.6.859.859,0,0,0,.826.757,11.222,11.222,0,0,0,2.047.294l2.633.171a11.954,11.954,0,0,1,2.633.465,5.176,5.176,0,0,1,2.047,1.118,2.755,2.755,0,0,1,.86,2.135,3.569,3.569,0,0,1-1.066,2.616,7.424,7.424,0,0,1-2.667,1.721,11.92,11.92,0,0,1-3.441.7,12.5,12.5,0,0,1-3.441-.24,6.634,6.634,0,0,1-2.667-1.189,2.56,2.56,0,0,1-1.068-2.116,2.656,2.656,0,0,1,.311-1.256,4.525,4.525,0,0,1,.757-1.05,6,6,0,0,1,1.014-.843l1.1-.688a2.972,2.972,0,0,1-1.481-1.221,1.571,1.571,0,0,1,0-1.308,3.79,3.79,0,0,1,.929-1.29,17.909,17.909,0,0,1,1.36-1.171,4.961,4.961,0,0,1-1.842-1.721,5.142,5.142,0,0,1-.826-2.134,5.708,5.708,0,0,1,.138-2.287,5.6,5.6,0,0,1,1.031-2.066,5.489,5.489,0,0,1,1.876-1.5,5.891,5.891,0,0,1,2.564-.551,7.586,7.586,0,0,1,1.721.207,4.725,4.725,0,0,1,1.6.722H73.7l1.308-.1,1.481-.138.136.363Zm-8.6,14.109a4.571,4.571,0,0,0-.791.655,3.9,3.9,0,0,0-.6.809,1.833,1.833,0,0,0-.242.912,1.733,1.733,0,0,0,.586,1.325,3.865,3.865,0,0,0,1.394.722,8.821,8.821,0,0,0,1.721.327h1.429a12.233,12.233,0,0,0,2-.119,9.35,9.35,0,0,0,1.962-.568,4.269,4.269,0,0,0,1.273-.843,1.843,1.843,0,0,0,.532-1.377,1.241,1.241,0,0,0-.6-1.1,4.427,4.427,0,0,0-1.446-.549,10.72,10.72,0,0,0-1.721-.259h-1.29l-1.721-.119a6.354,6.354,0,0,1-1.721-.242,7.355,7.355,0,0,0-.774.43Zm6.211-12.457a4.592,4.592,0,0,0-1.273-1.721,3.174,3.174,0,0,0-1.721-.689,2.975,2.975,0,0,0-1.721.276A3.122,3.122,0,0,0,66.2,75.606a3.848,3.848,0,0,0-.517,2.064,6.413,6.413,0,0,0,.517,2.736,4.45,4.45,0,0,0,1.273,1.721,3.25,3.25,0,0,0,1.721.67,2.865,2.865,0,0,0,1.721-.292,3.233,3.233,0,0,0,1.273-1.2,3.832,3.832,0,0,0,.517-2.064,6.184,6.184,0,0,0-.534-2.685Z" transform="translate(41.672 12.312)" fill="#066e70"/>
    <path id="Path_3727" data-name="Path 3727" d="M73.186,91.714H72.86V70.894a.992.992,0,0,0-.207-.739.977.977,0,0,0-.482-.242,3.007,3.007,0,0,0-.7,0,1.869,1.869,0,0,1-.707,0v-.24l.86-.242L73,69.087l1.377-.257a1.7,1.7,0,0,1,.843,0V78.911A5.472,5.472,0,0,1,82.823,76.8a5.911,5.911,0,0,1,1.926,1.824,8.016,8.016,0,0,1,1.1,2.546,10.368,10.368,0,0,1,.292,2.926,10.564,10.564,0,0,1-.551,2.925,8.085,8.085,0,0,1-1.377,2.512,7.071,7.071,0,0,1-2.253,1.824,6.637,6.637,0,0,1-3.1.688,7.1,7.1,0,0,1-2.546-.5A6.082,6.082,0,0,1,74.185,90.1Zm9.807-10.858a5.156,5.156,0,0,0-1.548-2.151,3.661,3.661,0,0,0-2.03-.774,3.756,3.756,0,0,0-2.032.43,4.114,4.114,0,0,0-1.565,1.513,4.447,4.447,0,0,0-.62,2.393v4.663a3.539,3.539,0,0,0,.62,2.1,4.022,4.022,0,0,0,1.565,1.325,4.165,4.165,0,0,0,2.032.4,3.71,3.71,0,0,0,2.03-.7,4.895,4.895,0,0,0,1.548-2.014,8.348,8.348,0,0,0,.62-3.441A9.338,9.338,0,0,0,82.994,80.857Z" transform="translate(47.846 9.246)" fill="#066e70"/>
    <path id="Path_3728" data-name="Path 3728" d="M80.541,91.564v-.173a2.092,2.092,0,0,0,1.135-.206,1.536,1.536,0,0,0,.275-1.137V78.366a2.213,2.213,0,0,0,0-.739.378.378,0,0,0-.24-.24,1.126,1.126,0,0,0-.43,0,2.1,2.1,0,0,1-.689,0v-.242l3.149-1.1h.6V90.016a3.463,3.463,0,0,0,.1.98.843.843,0,0,0,.843.276v.292Zm3.441-19.995a1.361,1.361,0,0,1-1.859,0,1.722,1.722,0,0,1,0-2.22,1.361,1.361,0,0,1,1.859,0A1.726,1.726,0,0,1,83.982,71.569Z" transform="translate(54.963 9.397)" fill="#066e70"/>
    <path id="Path_3729" data-name="Path 3729" d="M86.77,80.269a11.281,11.281,0,0,0,.327,2.462,7.159,7.159,0,0,0,.929,2.168,4.706,4.706,0,0,0,1.721,1.548,4.9,4.9,0,0,0,2.462.586,9.759,9.759,0,0,0,1.308-.1,8.105,8.105,0,0,0,1.325-.309,5.013,5.013,0,0,0,1.2-.586,3.015,3.015,0,0,0,.843-1l.327.482a5.93,5.93,0,0,1-2.546,2.6,7.487,7.487,0,0,1-3.441.843,6.448,6.448,0,0,1-2.925-.6,5.613,5.613,0,0,1-2.014-1.721,6.885,6.885,0,0,1-1.152-2.444,11.334,11.334,0,0,1-.361-2.942,11.567,11.567,0,0,1,.4-3.028,8.194,8.194,0,0,1,1.239-2.667,6.519,6.519,0,0,1,2.1-1.893,5.984,5.984,0,0,1,2.942-.67,5.544,5.544,0,0,1,2.65.586,5.152,5.152,0,0,1,1.721,1.548,7.084,7.084,0,0,1,1.05,2.22,15,15,0,0,1,.517,2.529V80.2H86.718Zm7.606-2.925a5.529,5.529,0,0,0-.6-1.463,3.207,3.207,0,0,0-1.05-1.049,2.978,2.978,0,0,0-1.6-.4A3.943,3.943,0,0,0,89.4,74.8a3.856,3.856,0,0,0-1.256,1,5,5,0,0,0-.826,1.444,8.227,8.227,0,0,0-.43,1.721h7.777a9.748,9.748,0,0,0-.309-1.617Z" transform="translate(58.043 12.311)" fill="#066e70"/>
    <path id="Path_3730" data-name="Path 3730" d="M93.489,89.127l.1-4.267h.257a3.438,3.438,0,0,0,.843,1.721,4.248,4.248,0,0,0,1.411,1,4.4,4.4,0,0,0,1.721.361,4.072,4.072,0,0,0,1.6-.275,2.862,2.862,0,0,0,1.189-.86,2.462,2.462,0,0,0-.086-3.011,6.132,6.132,0,0,0-1.377-1.118,17.7,17.7,0,0,0-1.721-.947,10.608,10.608,0,0,1-1.721-1.05,5.777,5.777,0,0,1-1.377-1.411,3.451,3.451,0,0,1-.568-2.047,3.981,3.981,0,0,1,.38-1.721,3.662,3.662,0,0,1,1.049-1.308,4.844,4.844,0,0,1,1.532-.791,5.932,5.932,0,0,1,1.721-.275,5.817,5.817,0,0,1,1.721.257,13.928,13.928,0,0,0,1.721.413l.206-.7h.173v3.56h-.173a3.908,3.908,0,0,0-1.721-2.013,4.3,4.3,0,0,0-2.168-.586,3.027,3.027,0,0,0-1.857.62,2.03,2.03,0,0,0-.793,1.721,1.957,1.957,0,0,0,.586,1.446,6.875,6.875,0,0,0,1.429,1.083q.842.5,1.857.981a11.146,11.146,0,0,1,1.859,1.118,6,6,0,0,1,1.429,1.481,3.6,3.6,0,0,1,.586,2.064,3.875,3.875,0,0,1-1.446,3.149,4.858,4.858,0,0,1-1.721.929,6.931,6.931,0,0,1-1.963.292,8.657,8.657,0,0,1-1.479-.121l-1.481-.309-.517-.1-.517-.1a.41.41,0,0,0-.223.378,1.865,1.865,0,0,1-.155.465h-.309Z" transform="translate(64.384 12.385)" fill="#066e70"/>
    <path id="Path_3731" data-name="Path 3731" d="M121.208,73.318a3.009,3.009,0,0,0-.826-1.721,2.913,2.913,0,0,0-1.842-.465H114.36V89.321a4.656,4.656,0,0,0,0,.878.812.812,0,0,0,.257.465.955.955,0,0,0,.534.19h.878v.361h-6.2v-.327h.843a.958.958,0,0,0,.534-.19.882.882,0,0,0,.276-.465,3.728,3.728,0,0,0,0-.878V71.1h-4.234a2.292,2.292,0,0,0-2.683,2.2h-.294l.294-3.837h16.9l.1,3.854h-.361Z" transform="translate(72.232 9.747)" fill="#066e70"/>
    <path id="Path_3732" data-name="Path 3732" d="M118.114,88.649h-5.162v-.173a1.547,1.547,0,0,0,1.066-.24,1.712,1.712,0,0,0,.225-1.118v-11.8a2.82,2.82,0,0,0,0-.724.31.31,0,0,0-.207-.24,1.387,1.387,0,0,0-.378,0,1.859,1.859,0,0,1-.6,0v-.257l2.857-.964h.6v3.3a10.346,10.346,0,0,1,.689-1.221,6.641,6.641,0,0,1,.895-1.085,4.344,4.344,0,0,1,1.118-.791,3.157,3.157,0,0,1,1.411-.344,2.087,2.087,0,0,1,.947.257,1,1,0,0,1,.568.81v.413a2.015,2.015,0,0,1-.121.532,2.077,2.077,0,0,1-.259.5.9.9,0,0,1-.413.328.432.432,0,0,1-.5-.121,3.1,3.1,0,0,1-.346-.5,4.443,4.443,0,0,0-.361-.568.671.671,0,0,0-.568-.275,1.326,1.326,0,0,0-.688.223,4.865,4.865,0,0,0-.722.551,6.331,6.331,0,0,0-.637.672,6.944,6.944,0,0,0-.447.6,2.566,2.566,0,0,0-.447,1.446v9.258a2.649,2.649,0,0,0,0,.739.622.622,0,0,0,.259.378.906.906,0,0,0,.465.121h.739v.292Z" transform="translate(78.544 12.312)" fill="#066e70"/>
    <path id="Path_3733" data-name="Path 3733" d="M131.21,87.949a8.636,8.636,0,0,1-1.5.757,1.714,1.714,0,0,1-1.1,0,1.263,1.263,0,0,1-.707-.739,4.684,4.684,0,0,1-.292-1.721,8.192,8.192,0,0,1-2.185,1.909,5.271,5.271,0,0,1-2.771.757,4.987,4.987,0,0,1-1.721-.275,3.867,3.867,0,0,1-2.27-2.064,3.964,3.964,0,0,1-.346-1.721,3.744,3.744,0,0,1,.363-1.721,4.178,4.178,0,0,1,.928-1.256,6.188,6.188,0,0,1,1.342-.929q.775-.4,1.6-.758a11.434,11.434,0,0,1,2.529-.826,17.867,17.867,0,0,0,2.339-.6V77.366a2.767,2.767,0,0,0-.361-1.411,3.018,3.018,0,0,0-.912-1,4.174,4.174,0,0,0-1.29-.586A5.514,5.514,0,0,0,123.6,74.2a2.736,2.736,0,0,0-.843.138,6.548,6.548,0,0,0-.895.361,8.9,8.9,0,0,0-.86.5l-.739.5-.292-.19c.206-.24.43-.447.636-.653a7.041,7.041,0,0,1,.672-.568A6.53,6.53,0,0,1,123,73.322,5.3,5.3,0,0,1,124.877,73a5.162,5.162,0,0,1,3.718,1.221,4.908,4.908,0,0,1,1.273,3.7v8.344a4.851,4.851,0,0,0,0,.672,2.328,2.328,0,0,0,.188.6.4.4,0,0,0,.361.257,1.341,1.341,0,0,0,.845-.344Zm-5.7-7.263-1.55.447a6.927,6.927,0,0,0-1.531.689,3.946,3.946,0,0,0-1.152,1.066,2.618,2.618,0,0,0-.447,1.567,2.768,2.768,0,0,0,.5,1.721,2.532,2.532,0,0,0,1.24.878,3.46,3.46,0,0,0,1.6.119,4.412,4.412,0,0,0,1.6-.567,3.976,3.976,0,0,0,1.239-1.137,2.777,2.777,0,0,0,.5-1.721V80.172Z" transform="translate(82.449 12.306)" fill="#066e70"/>
    <path id="Path_3734" data-name="Path 3734" d="M139.723,73.664a1.477,1.477,0,0,0-.292.482l-5.97,16.227q-.293.772-.689,1.721a8.392,8.392,0,0,1-.98,1.721,5.868,5.868,0,0,1-1.325,1.273,2.94,2.94,0,0,1-1.721.517h-.6a3.675,3.675,0,0,1-.739-.207,2.555,2.555,0,0,1-.637-.344.726.726,0,0,1-.309-.5,1.651,1.651,0,0,1,0-.413,2.08,2.08,0,0,1,.19-.5,1.645,1.645,0,0,1,.309-.413.535.535,0,0,1,.361-.173,1.119,1.119,0,0,1,.86.294,2.037,2.037,0,0,1,.413.636l.275.655a.5.5,0,0,0,.415.344.828.828,0,0,0,.688-.378,5.6,5.6,0,0,0,.67-1.068,12.362,12.362,0,0,0,.62-1.462c.19-.534.361-1.05.534-1.55s.292-.947.413-1.325l.24-.826-5.7-14.368a.689.689,0,0,0-.361-.413,2.071,2.071,0,0,0-.568-.136V73.2h4.6v.259h-.447a1.34,1.34,0,0,0-.378.119.379.379,0,0,0-.207.259.818.818,0,0,0,0,.465l4.267,10.977,3.958-11.372a.245.245,0,0,0,0-.225.592.592,0,0,0-.223-.155.929.929,0,0,0-.309,0h-.259V73.2h3.441v.259A.827.827,0,0,0,139.723,73.664Z" transform="translate(87.906 12.464)" fill="#066e70"/>
    <path id="Path_3735" data-name="Path 3735" d="M145.242,88.664v-.173a1.227,1.227,0,0,0,1-.257,2.392,2.392,0,0,0,.154-1.1v-8.6a6.049,6.049,0,0,0-.154-1.41,3.484,3.484,0,0,0-.534-1.189,2.772,2.772,0,0,0-.947-.826,2.97,2.97,0,0,0-1.377-.309,3.7,3.7,0,0,0-2.322.757,4.313,4.313,0,0,0-1.429,1.98,3.55,3.55,0,0,0-.173.482,1.847,1.847,0,0,0-.119.48V88.13c0,.225.24.344.67.344v.19H135.9v-.173a1.065,1.065,0,0,0,.947-.275,2.6,2.6,0,0,0,.138-1.083v-11.8a2.425,2.425,0,0,0,0-.689.257.257,0,0,0-.19-.188,1.15,1.15,0,0,0-.361,0,1.065,1.065,0,0,1-.551,0v-.344l2.754-.964h.6v2.821a8.434,8.434,0,0,1,2.1-2.168,4.964,4.964,0,0,1,2.907-.826,4.462,4.462,0,0,1,2.049.43,3.78,3.78,0,0,1,1.375,1.17,5.134,5.134,0,0,1,.793,1.721,8.045,8.045,0,0,1,.257,2.049v8.776a1.976,1.976,0,0,0,.188.86.743.743,0,0,0,.741.4v.292Z" transform="translate(95.226 12.296)" fill="#066e70"/>
    <path id="Path_3736" data-name="Path 3736" d="M158.771,85.477a7.112,7.112,0,0,1-2.719,2.667,7.417,7.417,0,0,1-3.441.895,7.035,7.035,0,0,1-6.228-3.528,9.871,9.871,0,0,1,.017-8.964,7.1,7.1,0,0,1,2.717-2.685,7.194,7.194,0,0,1,9.757,2.719,8.608,8.608,0,0,1,1.083,4.474A8.482,8.482,0,0,1,158.771,85.477Zm-2.2-8.087a6.06,6.06,0,0,0-1.824-2.289,4.328,4.328,0,0,0-2.339-.843,3.679,3.679,0,0,0-2.306.655,5.163,5.163,0,0,0-1.721,2.253,9.3,9.3,0,0,0-.637,3.873,8.363,8.363,0,0,0,.793,3.681,5.976,5.976,0,0,0,1.84,2.272,4.278,4.278,0,0,0,2.341.826,3.711,3.711,0,0,0,2.324-.688,5.4,5.4,0,0,0,1.721-2.254,8.6,8.6,0,0,0,.618-3.82A8.77,8.77,0,0,0,156.569,77.391Z" transform="translate(102.086 12.282)" fill="#066e70"/>
    <path id="Path_3737" data-name="Path 3737" d="M160.137,88.634h-5.162v-.173a1.547,1.547,0,0,0,1.066-.24,1.722,1.722,0,0,0,.225-1.118V75.3a2.818,2.818,0,0,0,0-.724.31.31,0,0,0-.207-.24,1.38,1.38,0,0,0-.4,0,1.858,1.858,0,0,1-.6,0v-.257l2.857-.964h.6v3.3a10.348,10.348,0,0,1,.689-1.221,6.64,6.64,0,0,1,.895-1.085,4.344,4.344,0,0,1,1.118-.791,3.165,3.165,0,0,1,1.394-.309,2.093,2.093,0,0,1,.947.257.994.994,0,0,1,.567.81v.413a1.946,1.946,0,0,1-.119.532,2.076,2.076,0,0,1-.259.5.882.882,0,0,1-.413.327.432.432,0,0,1-.5-.119,3.284,3.284,0,0,1-.344-.5,4.641,4.641,0,0,0-.361-.568.671.671,0,0,0-.568-.275,1.321,1.321,0,0,0-.688.223,4.751,4.751,0,0,0-.722.551,6.486,6.486,0,0,0-.637.67,6.893,6.893,0,0,0-.447.6,2.567,2.567,0,0,0-.447,1.446v9.256a2.661,2.661,0,0,0,0,.741.622.622,0,0,0,.259.378.906.906,0,0,0,.465.121h.739v.257h.052Z" transform="translate(109.118 12.327)" fill="#066e70"/>
    <g id="Group_4905" data-name="Group 4905" transform="translate(282.78 78.304)">
      <path id="Path_3738" data-name="Path 3738" d="M179.274,79.6h.743a.924.924,0,0,1,.617.123c.249,0,.371.124.5.371s.249.5.124.743v7.3a1.81,1.81,0,0,1-.741.617c-.373.124-.743.249-1.239.373s-.865.123-1.36.247h-.99a8,8,0,0,1-3.339-.618,5.972,5.972,0,0,1-2.723-1.854,6.949,6.949,0,0,1-1.733-3.092,11.174,11.174,0,0,1-.5-3.464,11.431,11.431,0,0,1,.5-3.588,8.373,8.373,0,0,1,1.484-2.968,8.487,8.487,0,0,1,2.6-2.1,8.864,8.864,0,0,1,3.588-.743,6.878,6.878,0,0,1,3.464.866,7.9,7.9,0,0,1,2.476,2.476v0a2.124,2.124,0,0,0,.123-.866c0-.371.124-.865.124-1.237V69.957h-.371c0,.123-.124.247-.249.371a.452.452,0,0,1-.371.124l-.988-.249c-.249,0-.5-.124-.743-.124-.123,0-.247-.123-.371-.123a18.774,18.774,0,0,0-3.711-.371,9.859,9.859,0,0,0-4.207.866,10.008,10.008,0,0,0-5.442,5.566,13.06,13.06,0,0,0,.5,9.9,9.3,9.3,0,0,0,3.339,3.588,11,11,0,0,0,4.825,1.484,14.7,14.7,0,0,0,5.691-.617,2.049,2.049,0,0,0,.617-.249c.249-.123.5-.123.743-.247l.741-.371a.984.984,0,0,0,.5-.5V80.715a.828.828,0,0,1,.5-.866h0a2.311,2.311,0,0,1,.988-.247v-.249H178.9A.255.255,0,0,1,179.274,79.6Z" transform="translate(-165.792 -68.468)" fill="#066e70"/>
      <path id="Path_3739" data-name="Path 3739" d="M175.673,72.3Z" transform="translate(-158.603 -66.491)" fill="#066e70"/>
      <path id="Path_3740" data-name="Path 3740" d="M175.784,72.414Z" transform="translate(-158.59 -66.478)" fill="#066e70"/>
      <path id="Path_3741" data-name="Path 3741" d="M185.842,73.339a2.27,2.27,0,0,0-.866-.247,5.224,5.224,0,0,0-1.36.247c-.373.247-.743.5-1.114.741a6.322,6.322,0,0,0-.865.99,4.877,4.877,0,0,0-.617,1.114V73.092H180.4l-2.723.865v.123a5.378,5.378,0,0,0,.618.124h.371c.124,0,.124.124.247.249,0,.247.124.494.124.741V86.327a.991.991,0,0,1-1.237,1.237v.249h4.825v-.249h-.741a.943.943,0,0,1-.5-.123c-.124-.124-.249-.249-.249-.373,0-.247-.123-.494-.123-.741V77.544a2.481,2.481,0,0,1,.371-1.36c.123-.249.247-.373.371-.618.247-.247.371-.5.617-.618a2.6,2.6,0,0,1,.743-.494c.247-.124.371-.249.617-.249a.645.645,0,0,1,.5.249c.124.123.249.371.371.494s.249.373.371.5a.745.745,0,0,0,.5.124c.124,0,.249-.124.371-.247a1.4,1.4,0,0,0,.373-.99v-.371c.119-.249-.128-.5-.377-.62Z" transform="translate(-157.144 -65.917)" fill="#066e70"/>
      <path id="Path_3742" data-name="Path 3742" d="M197.057,80.815a9.725,9.725,0,0,0-.988-4.329,6.847,6.847,0,0,0-9.279-2.6,6.572,6.572,0,0,0-2.6,2.6,7.5,7.5,0,0,0-.99,4.329,8.136,8.136,0,0,0,.99,4.2,5.591,5.591,0,0,0,2.6,2.476,7.888,7.888,0,0,0,3.339.866,6.438,6.438,0,0,0,3.341-.866,7.166,7.166,0,0,0,2.6-2.476A7.085,7.085,0,0,0,197.057,80.815Zm-2.968,3.464a4.582,4.582,0,0,1-1.608,2.1,2.812,2.812,0,0,1-2.227.618,3.714,3.714,0,0,1-2.227-.743,5.64,5.64,0,0,1-1.731-2.1,8.283,8.283,0,0,1-.741-3.464,9.8,9.8,0,0,1,.617-3.711,4.585,4.585,0,0,1,1.61-2.1,3.369,3.369,0,0,1,2.227-.618,3.562,3.562,0,0,1,2.227.866,6.862,6.862,0,0,1,1.731,2.1,8.315,8.315,0,0,1,.741,3.464A7.126,7.126,0,0,1,194.089,84.279Z" transform="translate(-153.142 -65.97)" fill="#066e70"/>
      <path id="Path_3743" data-name="Path 3743" d="M204.268,86.03V73.287H200.68v.247a2.711,2.711,0,0,1,.99.124c.247.124.371.371.371.866v8.164a3.218,3.218,0,0,1-.5,1.855,3.91,3.91,0,0,1-1.237,1.237,4.021,4.021,0,0,1-1.608.5,2.477,2.477,0,0,1-1.61-.247,2.713,2.713,0,0,1-1.237-1.114,4.06,4.06,0,0,1-.5-2.1l.124-9.65h-3.339v.249a2.124,2.124,0,0,1,.866.123,1.2,1.2,0,0,1,.247.867V83.06a5.785,5.785,0,0,0,1.114,3.464,3.921,3.921,0,0,0,3.339,1.36,5,5,0,0,0,2.723-.741,10.521,10.521,0,0,0,1.978-2.1v2.6h.249l2.721-.741v-.25a1.573,1.573,0,0,1-.741-.123c-.245.247-.37,0-.37-.494Z" transform="translate(-146.621 -65.866)" fill="#066e70"/>
      <path id="Path_3744" data-name="Path 3744" d="M214.435,78.091a4.611,4.611,0,0,0-.866-2.474,6.658,6.658,0,0,0-1.855-1.855,5.372,5.372,0,0,0-5.445,0,6.049,6.049,0,0,0-1.978,1.98v-2.6h-.618l-2.474.988v.249h.867c.124,0,.124.124.124.247,0,.249.124.5,0,.618V92.812a1.833,1.833,0,0,1-.249,1.114,2.311,2.311,0,0,1-.988.247v.249H205.9v-.249h-.741a.751.751,0,0,1-.5-.123c-.124-.124-.247-.249-.247-.373,0-.247-.124-.5-.124-.741v-6.68a3.148,3.148,0,0,0,1.733,1.61,3.8,3.8,0,0,0,2.351.371,7.336,7.336,0,0,0,4.329-2.227,8.605,8.605,0,0,0,1.237-2.351,21.047,21.047,0,0,0,.617-2.721A11.166,11.166,0,0,0,214.435,78.091Zm-2.6,6.311a5.962,5.962,0,0,1-1.486,1.978,5.44,5.44,0,0,1-1.978.741,5.576,5.576,0,0,1-1.98-.371,5.291,5.291,0,0,1-1.484-1.361,4.6,4.6,0,0,1-.618-2.225V79.2a3.963,3.963,0,0,1,.618-2.351,4.282,4.282,0,0,1,1.484-1.484,3.613,3.613,0,0,1,1.98-.5,3.035,3.035,0,0,1,1.978.741,6,6,0,0,1,1.486,1.978,8.576,8.576,0,0,1,.617,3.464A7.355,7.355,0,0,1,211.837,84.4Z" transform="translate(-140.211 -65.969)" fill="#066e70"/>
    </g>
  </g>
</svg>